# xmcd
#
# Track frame offsets:
#	150
#	20051
#	38697
#	46723
#	60180
#	75699
#	97291
#	114186
#	128536
#	141756
#	152453
#	173141
#
# Disc length: 2598 seconds
# Revision: 0
# Processed by: cddbd v1.5.2PL0 Copyright (c) Steve Scherf et al.
# Submitted via: dBpowerAMP V12.0
#
DISCID=890a240c
DTITLE=Dave Kelly - Dave Kelly
DYEAR=1971
DGENRE=Blues
TTITLE0=Gotta Keep Running
TTITLE1=No Fun For Me
TTITLE2=Fair Theme
TTITLE3=You Got It
TTITLE4=Way I Feel Today
TTITLE5=The Fields of Night
TTITLE6=Poor Old Bill
TTITLE7=Hallo L.A., Bye Bye Birmingham
TTITLE8=It's You
TTITLE9=Green Winter
TTITLE10=Brooklyn Bridge
TTITLE11=Get Right Church
EXTD=
EXTT0=
EXTT1=
EXTT2=
EXTT3=
EXTT4=
EXTT5=
EXTT6=
EXTT7=
EXTT8=
EXTT9=
EXTT10=
EXTT11=
PLAYORDER=
